# xmcd
#
# Track frame offsets:
#	150
#	17421
#	34235
#	51910
#	68150
#	85274
#	101798
#	113128
#	129489
#	144364
#	161555
#	175200
#	193661
#
# Disc length: 2923 seconds
#
# Revision: 1
# Processed by: cddbd v1.5.2PL0 Copyright (c) Steve Scherf et al.
# Submitted via: audiograbber 1.83.01
#
DISCID=ae0b690d
DTITLE=Adam Harvey - I'm Doin' Alright
DYEAR=2007
DGENRE=Country
TTITLE0=I'm Doin' Alright
TTITLE1=Someone Else's Dream
TTITLE2=Way Too Fast
TTITLE3=You'd Do The Same For Me
TTITLE4=A Better Man
TTITLE5=Flowers
TTITLE6=The Older I Get
TTITLE7=Walls
TTITLE8=Heartbroke
TTITLE9=A Bigger Plan
TTITLE10=Genie In The Bottle
TTITLE11=Will You Be Mine
TTITLE12=I'm Doin' Alright (Reprise)
EXTD=
EXTT0=
EXTT1=
EXTT2=
EXTT3=
EXTT4=
EXTT5=
EXTT6=
EXTT7=
EXTT8=
EXTT9=
EXTT10=
EXTT11=
EXTT12=
PLAYORDER=
